<?xml version="1.0" encoding="UTF-8"?>
<svg width="28px" height="28px" viewBox="0 0 28 28" version="1.1" xmlns="http://www.w3.org/2000/svg" xmlns:xlink="http://www.w3.org/1999/xlink">
    <!-- Generator: Sketch 45 (43475) - http://www.bohemiancoding.com/sketch -->
    <title>Downloads/solid</title>
    <desc>Created with Sketch.</desc>
    <defs>
        <path d="M3.3,28.9508322 C3.3,28.0814434 4.0040973,27.3766645 4.87873484,27.3766645 L28.5608256,27.3766645 C29.4327367,27.3766645 30.1395604,28.0753822 30.1395604,28.9508322 C30.1395604,29.8202211 29.4354631,30.525 28.5608256,30.525 L4.87873484,30.525 C4.00682366,30.525 3.3,29.8262823 3.3,28.9508322 Z M23.3997141,14.2951568 C24.0082604,13.6742488 24.995654,13.6742488 25.6042003,14.2951568 C26.2132662,14.915535 26.2132662,15.9221263 25.6042003,16.5425045 L17.7564999,24.542787 C17.4519669,24.853241 17.052852,25.008468 16.6542568,25.008468 C16.2551419,25.008468 15.856027,24.853241 15.5520137,24.5433168 L7.70379364,16.5430343 C7.09472769,15.9221263 7.09472769,14.915535 7.70379364,14.2951568 C8.31285958,13.6742488 9.29973351,13.6747786 9.90827977,14.2951568 L15.0952143,19.5824105 L15.0952143,4.88935484 C15.0952143,4.01150118 15.7931456,3.3 16.6542568,3.3 C17.515368,3.3 18.2132993,4.01150118 18.2132993,4.88935484 L18.2132993,19.5824105 L23.3997141,14.2951568 Z" id="path-1"></path>
    </defs>
    <g id="Symbols" stroke="none" stroke-width="1" fill="none" fill-rule="evenodd">
        <g id="Profile-Header/dsktpstd" transform="translate(-266.000000, -129.000000)">
            <g id="Downloads/solid" transform="translate(263.000000, 126.000000)">
                <mask id="mask-2" fill="white">
                    <use xlink:href="#path-1"></use>
                </mask>
                <g id="Triangle-2"></g>
                <g id="Colour/Black" mask="url(#mask-2)" fill-rule="evenodd" fill="#9A9A9A">
                    <g transform="translate(-4.125000, -4.125000)" id="Colour/Grey">
                        <rect x="0" y="0" width="40" height="40"></rect>
                    </g>
                </g>
            </g>
        </g>
    </g>
</svg>
