<?xml version="1.0" encoding="UTF-8"?>
<svg width="31px" height="28px" viewBox="0 0 31 28" version="1.1" xmlns="http://www.w3.org/2000/svg" xmlns:xlink="http://www.w3.org/1999/xlink">
    <!-- Generator: Sketch 45 (43475) - http://www.bohemiancoding.com/sketch -->
    <title>Upload/outline Copy</title>
    <desc>Created with Sketch.</desc>
    <defs>
        <path d="M24.3123375,16.9351875 C24.4643437,16.195575 25.1164212,14.6827594 25.275293,13.0496094 C25.6689941,9.00249023 22.9684082,3.3 16.5,3.3 C10.0315918,3.3 7.43574219,9.07177734 8.45625,14.64375 C8.46321638,14.6817864 8.46759375,14.7186187 8.46759375,14.7571875 C4.61979375,15.306225 1.65,18.5845688 1.65,22.584375 C1.65,26.9698688 5.20513125,30.525 9.590625,30.525 L13.5508658,30.525 L13.5508658,30.525 C14.6475624,30.525 15.5396981,29.6418213 15.550764,28.5451805 L15.6463006,19.0774606 L12.413873,22.4010193 L12.413873,22.4010193 C12.0426524,22.7827056 11.4323008,22.7911898 11.0506145,22.4199692 C11.0451674,22.4146715 11.0397832,22.4093095 11.0344628,22.4038845 L11.0344628,22.4038845 L11.0344628,22.4038845 C10.6500167,22.0118712 10.6484066,21.384774 11.0308347,20.9907917 L15.8863361,15.9885925 L15.8863361,15.9885925 C16.0789223,15.7901877 16.3436417,15.6782227 16.6201447,15.6782227 L16.6201447,15.6782227 L16.6201447,15.6782227 C16.8967692,15.6782227 17.1617295,15.7896647 17.3551936,15.9873836 L22.2540396,20.9939674 L22.2540396,20.9939674 C22.6375452,21.3859073 22.637154,22.0125899 22.2531592,22.4040506 L22.2531592,22.4040506 L22.2531592,22.4040506 C21.878425,22.7860708 21.2649542,22.7919772 20.882934,22.4172429 C20.8786733,22.4130635 20.8744513,22.4088448 20.8702686,22.4045873 L17.6015253,19.0774606 L17.6015253,28.525 L17.6015253,28.525 C17.6015253,29.6295695 18.4969558,30.525 19.6015253,30.525 L24.54375,30.525 C28.3030688,30.525 31.35,27.4780688 31.35,23.71875 C31.35,19.9594313 28.3030688,16.9125 24.54375,16.9125 C24.4643438,16.9125 24.389475,16.9329187 24.3123375,16.9351875 Z" id="path-1"></path>
    </defs>
    <g id="Symbols" stroke="none" stroke-width="1" fill="none" fill-rule="evenodd">
        <g id="Profile-Header/dsktpstd" transform="translate(-351.000000, -129.000000)">
            <g id="Upload/outline-Copy" transform="translate(350.000000, 126.000000)">
                <mask id="mask-2" fill="white">
                    <use xlink:href="#path-1"></use>
                </mask>
                <g id="Shape"></g>
                <g id="Colour/Black" mask="url(#mask-2)" fill-rule="evenodd" fill="#9A9A9A">
                    <g transform="translate(-3.300000, -3.300000)" id="Colour/Grey">
                        <rect x="0" y="0" width="40" height="40"></rect>
                    </g>
                </g>
            </g>
        </g>
    </g>
</svg>
